# xmcd
#
# Track frame offsets:
#	150
#	14656
#	28157
#	46150
#	63415
#	77551
#	94365
#	113864
#	126983
#	139570
#	157437
#	171962
#	188340
#	207442
#	223077
#	237522
#	249302
#	260379
#	275057
#
# Disc length: 3900 seconds
#
# Revision: 1
# Processed by: cddbd v1.4PL0 Copyright (c) Steve Scherf et al.
# Submitted via: EasyCDDAExtractor 6.2.0.3
#
DISCID=1e0f3a13
DTITLE=Paradão Sertanejo 2003 - Paradão Sertanejo
DYEAR=2003
DGENRE=Sertanejo
TTITLE0=Aconteceu Comigo - Deley E Dorivam
TTITLE1=Mulher Chorona - Teodoro and Sampaio
TTITLE2=Vai Dar Namoro - Bruno and Marrone
TTITLE3=Pra Mudar Minha Vida - Zezé Di Camargo and Luciano
TTITLE4=Folha Seca - Adalberto E Adriano 
TTITLE5=Mistério - Matogrosso and Mathias
TTITLE6=Eu Sei Que Te Perdi - Leonardo
TTITLE7=Amor De Rapariga - Cheiro De Forró
TTITLE8=É Mentira Dela - Teodoro and Sampaio
TTITLE9=Aqueles Olhos - Cezar and Paulinho
TTITLE10=Te Quero Pra Mim - Edson E Hudson
TTITLE11=Fragmento De Amor - Rob and Roger
TTITLE12=Nunca Mais Vou Te Esquecer - Goiano E Paranaense
TTITLE13=Piaxão Desenfreada - Ronaldo Viola E Praiano
TTITLE14=Mexe Mexe - Zéze De Camargo and Luciano
TTITLE15=Comendo Poeira - Adalberto E Adriano
TTITLE16=A Amor Se Vai - Leonardo
TTITLE17=Vai Chover Mulher - Teodoro E Sampaio
TTITLE18=Separados - Rob E Roger
EXTD=
EXTT0=
EXTT1=
EXTT2=
EXTT3=
EXTT4=
EXTT5=
EXTT6=
EXTT7=
EXTT8=
EXTT9=
EXTT10=
EXTT11=
EXTT12=
EXTT13=
EXTT14=
EXTT15=
EXTT16=
EXTT17=
EXTT18=
PLAYORDER=
